<svg xmlns="http://www.w3.org/2000/svg" xmlns:xlink="http://www.w3.org/1999/xlink" viewBox="0 0 500 500"><defs><clipPath id="freepik--clip-path--inject-32"><rect x="108.77" y="145.02" width="292.05" height="210.92" style="fill:#fff;stroke:#263238;stroke-linecap:round;stroke-linejoin:round"></rect></clipPath><clipPath id="freepik--clip-path-2--inject-32"><rect x="332.48" y="276.35" width="60.39" height="79.24" style="fill:none"></rect></clipPath><clipPath id="freepik--clip-path-3--inject-32"><rect x="261.7" y="276.35" width="60.39" height="79.24" style="fill:none"></rect></clipPath><clipPath id="freepik--clip-path-4--inject-32"><rect x="182.46" y="275.97" width="60.39" height="79.63" style="fill:none"></rect></clipPath><clipPath id="freepik--clip-path-5--inject-32"><rect x="121.68" y="276.35" width="53.47" height="79.24" style="fill:none"></rect></clipPath></defs><g id="freepik--background-simple--inject-32"><path d="M387,130.86s-42.69-44.11-110.28-42-125.23,44.83-172.9,78.27S43.35,252.53,71.1,293.08s71.86,23.48,128.06,49.8S266,384.15,328.65,377.75s110.29-71.86,103.17-141.59S387,130.86,387,130.86Z" style="fill:#21496C"></path><path d="M387,130.86s-42.69-44.11-110.28-42-125.23,44.83-172.9,78.27S43.35,252.53,71.1,293.08s71.86,23.48,128.06,49.8S266,384.15,328.65,377.75s110.29-71.86,103.17-141.59S387,130.86,387,130.86Z" style="fill:#fff;opacity:0.7000000000000001"></path></g><g id="freepik--Page--inject-32"><polygon points="186.7 139.04 178.53 126 106.57 126 106.57 139.04 106.57 143.73 106.57 360.67 402.77 360.67 402.77 139.04 186.7 139.04" style="fill:#263238"></polygon><rect x="108.77" y="145.02" width="292.05" height="210.92" style="fill:#fff"></rect><g style="clip-path:url(#freepik--clip-path--inject-32)"><rect x="395.47" y="143.21" width="6.78" height="214.33" style="opacity:0.17"></rect><rect x="395.47" y="272.8" width="6.78" height="83" style="opacity:0.17"></rect><rect x="107.61" y="142.17" width="293.59" height="11.47" style="fill:#21496C;stroke:#263238;stroke-miterlimit:10"></rect></g><rect x="108.77" y="145.02" width="292.05" height="210.92" style="fill:none;stroke:#263238;stroke-linecap:round;stroke-linejoin:round"></rect><g style="opacity:0.17"><path d="M260.93,164.7H240.5a1.8,1.8,0,0,1-1.8-1.8h0a1.8,1.8,0,0,1,1.8-1.81h20.43a1.8,1.8,0,0,1,1.8,1.81h0A1.8,1.8,0,0,1,260.93,164.7Z"></path><path d="M301.79,164.7H281.36a1.81,1.81,0,0,1-1.8-1.8h0a1.81,1.81,0,0,1,1.8-1.81h20.43a1.81,1.81,0,0,1,1.81,1.81h0A1.81,1.81,0,0,1,301.79,164.7Z"></path><path d="M342.66,164.7H322.23a1.81,1.81,0,0,1-1.81-1.8h0a1.81,1.81,0,0,1,1.81-1.81h20.43a1.81,1.81,0,0,1,1.8,1.81h0A1.81,1.81,0,0,1,342.66,164.7Z"></path><path d="M383.52,164.7H363.09a1.8,1.8,0,0,1-1.8-1.8h0a1.8,1.8,0,0,1,1.8-1.81h20.43a1.81,1.81,0,0,1,1.8,1.81h0A1.81,1.81,0,0,1,383.52,164.7Z"></path></g><line x1="136.37" y1="250.79" x2="167.24" y2="250.79" style="fill:none;stroke:#263238;stroke-linecap:round;stroke-linejoin:round;stroke-width:3px"></line><line x1="166.69" y1="255.6" x2="170.06" y2="255.6" style="fill:none;stroke:#263238;stroke-linecap:round;stroke-linejoin:round"></line><line x1="147.36" y1="255.6" x2="164.65" y2="255.6" style="fill:none;stroke:#263238;stroke-linecap:round;stroke-linejoin:round"></line><line x1="134.01" y1="255.6" x2="145.53" y2="255.6" style="fill:none;stroke:#263238;stroke-linecap:round;stroke-linejoin:round"></line><line x1="155.9" y1="260.41" x2="170.06" y2="260.41" style="fill:none;stroke:#263238;stroke-linecap:round;stroke-linejoin:round"></line><line x1="148.17" y1="260.41" x2="153.67" y2="260.41" style="fill:none;stroke:#263238;stroke-linecap:round;stroke-linejoin:round"></line><line x1="134.01" y1="260.41" x2="145.73" y2="260.41" style="fill:none;stroke:#263238;stroke-linecap:round;stroke-linejoin:round"></line><line x1="141.66" y1="265.21" x2="170.06" y2="265.21" style="fill:none;stroke:#263238;stroke-linecap:round;stroke-linejoin:round"></line><line x1="134.01" y1="265.21" x2="139.02" y2="265.21" style="fill:none;stroke:#263238;stroke-linecap:round;stroke-linejoin:round"></line><line x1="163.03" y1="270.02" x2="170.06" y2="270.02" style="fill:none;stroke:#263238;stroke-linecap:round;stroke-linejoin:round"></line><line x1="149.6" y1="270.02" x2="160.58" y2="270.02" style="fill:none;stroke:#263238;stroke-linecap:round;stroke-linejoin:round"></line><line x1="134.01" y1="270.02" x2="147.36" y2="270.02" style="fill:none;stroke:#263238;stroke-linecap:round;stroke-linejoin:round"></line><line x1="145.73" y1="274.83" x2="170.06" y2="274.83" style="fill:none;stroke:#263238;stroke-linecap:round;stroke-linejoin:round"></line><line x1="134.01" y1="274.83" x2="143.49" y2="274.83" style="fill:none;stroke:#263238;stroke-linecap:round;stroke-linejoin:round"></line><line x1="206.77" y1="250.79" x2="237.64" y2="250.79" style="fill:none;stroke:#263238;stroke-linecap:round;stroke-linejoin:round;stroke-width:3px"></line><line x1="237.09" y1="255.6" x2="240.46" y2="255.6" style="fill:none;stroke:#263238;stroke-linecap:round;stroke-linejoin:round"></line><line x1="217.76" y1="255.6" x2="235.05" y2="255.6" style="fill:none;stroke:#263238;stroke-linecap:round;stroke-linejoin:round"></line><line x1="204.41" y1="255.6" x2="215.93" y2="255.6" style="fill:none;stroke:#263238;stroke-linecap:round;stroke-linejoin:round"></line><line x1="226.3" y1="260.41" x2="240.46" y2="260.41" style="fill:none;stroke:#263238;stroke-linecap:round;stroke-linejoin:round"></line><line x1="218.57" y1="260.41" x2="224.07" y2="260.41" style="fill:none;stroke:#263238;stroke-linecap:round;stroke-linejoin:round"></line><line x1="204.41" y1="260.41" x2="216.13" y2="260.41" style="fill:none;stroke:#263238;stroke-linecap:round;stroke-linejoin:round"></line><line x1="212.06" y1="265.21" x2="240.46" y2="265.21" style="fill:none;stroke:#263238;stroke-linecap:round;stroke-linejoin:round"></line><line x1="204.41" y1="265.21" x2="209.42" y2="265.21" style="fill:none;stroke:#263238;stroke-linecap:round;stroke-linejoin:round"></line><line x1="233.43" y1="270.02" x2="240.46" y2="270.02" style="fill:none;stroke:#263238;stroke-linecap:round;stroke-linejoin:round"></line><line x1="220" y1="270.02" x2="230.98" y2="270.02" style="fill:none;stroke:#263238;stroke-linecap:round;stroke-linejoin:round"></line><line x1="204.41" y1="270.02" x2="217.76" y2="270.02" style="fill:none;stroke:#263238;stroke-linecap:round;stroke-linejoin:round"></line><line x1="216.13" y1="274.83" x2="240.46" y2="274.83" style="fill:none;stroke:#263238;stroke-linecap:round;stroke-linejoin:round"></line><line x1="204.41" y1="274.83" x2="213.89" y2="274.83" style="fill:none;stroke:#263238;stroke-linecap:round;stroke-linejoin:round"></line><line x1="277.17" y1="250.79" x2="308.04" y2="250.79" style="fill:none;stroke:#263238;stroke-linecap:round;stroke-linejoin:round;stroke-width:3px"></line><line x1="307.49" y1="255.6" x2="310.86" y2="255.6" style="fill:none;stroke:#263238;stroke-linecap:round;stroke-linejoin:round"></line><line x1="288.16" y1="255.6" x2="305.45" y2="255.6" style="fill:none;stroke:#263238;stroke-linecap:round;stroke-linejoin:round"></line><line x1="274.81" y1="255.6" x2="286.33" y2="255.6" style="fill:none;stroke:#263238;stroke-linecap:round;stroke-linejoin:round"></line><line x1="296.7" y1="260.41" x2="310.86" y2="260.41" style="fill:none;stroke:#263238;stroke-linecap:round;stroke-linejoin:round"></line><line x1="288.97" y1="260.41" x2="294.47" y2="260.41" style="fill:none;stroke:#263238;stroke-linecap:round;stroke-linejoin:round"></line><line x1="274.81" y1="260.41" x2="286.53" y2="260.41" style="fill:none;stroke:#263238;stroke-linecap:round;stroke-linejoin:round"></line><line x1="282.46" y1="265.21" x2="310.86" y2="265.21" style="fill:none;stroke:#263238;stroke-linecap:round;stroke-linejoin:round"></line><line x1="274.81" y1="265.21" x2="279.82" y2="265.21" style="fill:none;stroke:#263238;stroke-linecap:round;stroke-linejoin:round"></line><line x1="303.83" y1="270.02" x2="310.86" y2="270.02" style="fill:none;stroke:#263238;stroke-linecap:round;stroke-linejoin:round"></line><line x1="290.4" y1="270.02" x2="301.38" y2="270.02" style="fill:none;stroke:#263238;stroke-linecap:round;stroke-linejoin:round"></line><line x1="274.81" y1="270.02" x2="288.16" y2="270.02" style="fill:none;stroke:#263238;stroke-linecap:round;stroke-linejoin:round"></line><line x1="286.53" y1="274.83" x2="310.86" y2="274.83" style="fill:none;stroke:#263238;stroke-linecap:round;stroke-linejoin:round"></line><line x1="274.81" y1="274.83" x2="284.29" y2="274.83" style="fill:none;stroke:#263238;stroke-linecap:round;stroke-linejoin:round"></line><line x1="347.57" y1="250.79" x2="378.44" y2="250.79" style="fill:none;stroke:#263238;stroke-linecap:round;stroke-linejoin:round;stroke-width:3px"></line><line x1="377.89" y1="255.6" x2="381.26" y2="255.6" style="fill:none;stroke:#263238;stroke-linecap:round;stroke-linejoin:round"></line><line x1="358.56" y1="255.6" x2="375.85" y2="255.6" style="fill:none;stroke:#263238;stroke-linecap:round;stroke-linejoin:round"></line><line x1="345.21" y1="255.6" x2="356.73" y2="255.6" style="fill:none;stroke:#263238;stroke-linecap:round;stroke-linejoin:round"></line><line x1="367.1" y1="260.41" x2="381.26" y2="260.41" style="fill:none;stroke:#263238;stroke-linecap:round;stroke-linejoin:round"></line><line x1="359.37" y1="260.41" x2="364.87" y2="260.41" style="fill:none;stroke:#263238;stroke-linecap:round;stroke-linejoin:round"></line><line x1="345.21" y1="260.41" x2="356.93" y2="260.41" style="fill:none;stroke:#263238;stroke-linecap:round;stroke-linejoin:round"></line><line x1="352.86" y1="265.21" x2="381.26" y2="265.21" style="fill:none;stroke:#263238;stroke-linecap:round;stroke-linejoin:round"></line><line x1="345.21" y1="265.21" x2="350.22" y2="265.21" style="fill:none;stroke:#263238;stroke-linecap:round;stroke-linejoin:round"></line><line x1="374.23" y1="270.02" x2="381.26" y2="270.02" style="fill:none;stroke:#263238;stroke-linecap:round;stroke-linejoin:round"></line><line x1="360.8" y1="270.02" x2="371.78" y2="270.02" style="fill:none;stroke:#263238;stroke-linecap:round;stroke-linejoin:round"></line><line x1="345.21" y1="270.02" x2="358.56" y2="270.02" style="fill:none;stroke:#263238;stroke-linecap:round;stroke-linejoin:round"></line><line x1="356.93" y1="274.83" x2="381.26" y2="274.83" style="fill:none;stroke:#263238;stroke-linecap:round;stroke-linejoin:round"></line><line x1="345.21" y1="274.83" x2="354.69" y2="274.83" style="fill:none;stroke:#263238;stroke-linecap:round;stroke-linejoin:round"></line><path d="M390.77,235.3h-272V179.19h272Z" style="fill:#21496C"></path><path d="M390.77,235.3h-272V179.19h272Z" style="fill:#fff;opacity:0.7000000000000001"></path><path d="M321.94,235.3H187.65V179.19H321.94Z" style="fill:#21496C"></path><path d="M321.94,235.3H187.65V179.19H321.94Z" style="fill:#fff;opacity:0.92"></path><line x1="294.5" y1="195.45" x2="303.65" y2="195.45" style="fill:none;stroke:#263238;stroke-linecap:round;stroke-linejoin:round"></line><line x1="242.12" y1="195.45" x2="288.99" y2="195.45" style="fill:none;stroke:#263238;stroke-linecap:round;stroke-linejoin:round"></line><line x1="205.94" y1="195.45" x2="237.15" y2="195.45" style="fill:none;stroke:#263238;stroke-linecap:round;stroke-linejoin:round"></line><line x1="265.28" y1="200.26" x2="303.65" y2="200.26" style="fill:none;stroke:#263238;stroke-linecap:round;stroke-linejoin:round"></line><line x1="244.32" y1="200.26" x2="259.21" y2="200.26" style="fill:none;stroke:#263238;stroke-linecap:round;stroke-linejoin:round"></line><line x1="205.94" y1="200.26" x2="237.71" y2="200.26" style="fill:none;stroke:#263238;stroke-linecap:round;stroke-linejoin:round"></line><line x1="226.68" y1="205.07" x2="303.65" y2="205.07" style="fill:none;stroke:#263238;stroke-linecap:round;stroke-linejoin:round"></line><line x1="205.94" y1="205.07" x2="219.51" y2="205.07" style="fill:none;stroke:#263238;stroke-linecap:round;stroke-linejoin:round"></line><line x1="284.58" y1="209.88" x2="303.65" y2="209.88" style="fill:none;stroke:#263238;stroke-linecap:round;stroke-linejoin:round"></line><line x1="248.18" y1="209.88" x2="277.96" y2="209.88" style="fill:none;stroke:#263238;stroke-linecap:round;stroke-linejoin:round"></line><line x1="205.94" y1="209.88" x2="242.12" y2="209.88" style="fill:none;stroke:#263238;stroke-linecap:round;stroke-linejoin:round"></line><line x1="237.71" y1="214.68" x2="303.65" y2="214.68" style="fill:none;stroke:#263238;stroke-linecap:round;stroke-linejoin:round"></line><line x1="205.94" y1="214.68" x2="231.64" y2="214.68" style="fill:none;stroke:#263238;stroke-linecap:round;stroke-linejoin:round"></line><path d="M390.77,355.24h-272V299.13h272Z" style="fill:#21496C"></path><path d="M390.77,355.24h-272V299.13h272Z" style="fill:#fff;opacity:0.7000000000000001"></path></g><g id="freepik--character-4--inject-32"><g style="clip-path:url(#freepik--clip-path-2--inject-32)"><path d="M358.58,320.48s-15.93,6.4-18.43,7.19-2.65,1.87-2.65,5.3.47,18.9.47,20.15-.16,3.59-.16,3.59H390s-3.44-14-5.47-20.61-1.09-7.19-4.68-9.37-13-5.31-15-5.78A38.93,38.93,0,0,0,358.58,320.48Z" style="fill:#263238;stroke:#263238;stroke-linecap:round;stroke-linejoin:round"></path><path d="M359.36,318.76s-3.75-.31-5.31,2.82S348.74,332,348.74,332l4.53,2.81L348,337.5a106.32,106.32,0,0,0,3.28,11.4,71.42,71.42,0,0,0,3.12,7.19S362,347.5,365,344.84a23.84,23.84,0,0,0,4.84-6.56l-3.9-3.59,6.72-.78s-1.72-8.74-3.91-12.33S359.36,318.76,359.36,318.76Z" style="fill:#263238;stroke:#263238;stroke-linecap:round;stroke-linejoin:round"></path><path d="M351.69,349c.28.78.58,1.52.87,2.17" style="fill:none;stroke:#fff;stroke-linecap:round;stroke-linejoin:round;stroke-width:0.5px"></path><path d="M352.26,325.47,348.74,332l4.53,2.81-4.85,2.75s1.13,4.93,2.55,9.35" style="fill:none;stroke:#fff;stroke-linecap:round;stroke-linejoin:round;stroke-width:0.5px"></path><path d="M370,322.51l2.63,11.4-6.72.78,3.9,3.59s-7.5,8.79-10.61,12.34" style="fill:none;stroke:#fff;stroke-linecap:round;stroke-linejoin:round;stroke-width:0.5px"></path><line x1="379.82" y1="340" x2="377.01" y2="357.34" style="fill:none;stroke:#fff;stroke-linecap:round;stroke-linejoin:round;stroke-width:0.5px"></line><path d="M341.25,336.88s-.31,10.46-.16,13.74a21.83,21.83,0,0,0,1.25,6.09" style="fill:none;stroke:#fff;stroke-linecap:round;stroke-linejoin:round;stroke-width:0.5px"></path><polygon points="370.14 344.22 372.79 340.63 374.98 344.22 370.14 344.22" style="fill:#fff;stroke:#263238;stroke-miterlimit:10"></polygon><path d="M373.26,309.86s2.65-.31,3.28,3.6-1.25,8.9-7.5,8.9-5.77-4.69-5.62-8.12S373.26,309.86,373.26,309.86Z" style="fill:#263238;stroke:#263238;stroke-miterlimit:10"></path><path d="M357.8,316.27s-.16,4.52-.47,9.68-2.81,12.18-2.81,18.11a90.94,90.94,0,0,0,.47,9.84s5.15-10,7.49-15.77,5-22.49,5-22.49Z" style="fill:#fff;stroke:#263238;stroke-miterlimit:10"></path><path d="M373.1,306a17.25,17.25,0,0,0,1.88-7.34c0-3.9-.78-9.21-5.31-11.56s-13.28-.78-15.46,3.75a18.64,18.64,0,0,0-2,9.37,22.18,22.18,0,0,0,1.09,5.15s.63-3,4.84-4.52,8.75-3.13,10.93-2S373.1,306,373.1,306Z" style="fill:#263238;stroke:#263238;stroke-linecap:round;stroke-linejoin:round"></path><path d="M353.43,304.4s-1.88-2.81-2.66-.78.32,5,1.56,5.62,1.88.31,1.88.31Z" style="fill:#fff;stroke:#263238;stroke-linecap:round;stroke-linejoin:round"></path><path d="M373.1,304.87s2.19-2.19,2.19-.16a9,9,0,0,1-2,5.15c-.94,1.25-1.41.63-1.41.63Z" style="fill:#fff;stroke:#263238;stroke-linecap:round;stroke-linejoin:round"></path><path d="M369.39,295.88l1.55-4.37a.68.68,0,0,0-1.29-.46l-1.3,3.65a10.33,10.33,0,0,0-8.05,1.42c-4.06,2.66-7.34,5-7.34,5s.16,8.9,1.87,12.18,4.69,7.18,7.19,7.18,6.87-5.46,8.59-7.18,2.81-8.43,2.81-10.62C373.42,301.11,370.84,297.69,369.39,295.88Z" style="fill:#fff;stroke:#263238;stroke-miterlimit:10"></path><path d="M363.24,336a17.05,17.05,0,0,1-7.48-1,46.39,46.39,0,0,0-1.24,9.13,90.94,90.94,0,0,0,.47,9.84s5.15-10,7.49-15.77C362.73,337.52,363,336.77,363.24,336Z" style="fill:#21496C;stroke:#263238;stroke-miterlimit:10"></path></g></g><g id="freepik--character-3--inject-32"><g style="clip-path:url(#freepik--clip-path-3--inject-32)"><path d="M289.43,312.19a110.91,110.91,0,0,0-11.85,2c-4.57,1.18-6.77,1.69-6.77,3.89s-.51,11.68-2,15.92-3.22,10.33-3.22,12.53,3.22,11.51,3.22,11.51h5.92s-2.2-10.84-2.2-11.85,3.05-10,3.05-10l.17,22.18h31l-.33-21.17s2.7,8.64,2.7,10.16-1,11.52-1,11.52H314s2.88-11,2.71-14.9-3-16.26-3.38-20,1.86-5.76-2.2-8.3-13.38-4.06-15.41-4.23A32.58,32.58,0,0,0,289.43,312.19Z" style="fill:#21496C;stroke:#263238;stroke-miterlimit:10"></path><polyline points="275.55 336.24 276.06 327.77 274.19 321.34" style="fill:none;stroke:#263238;stroke-linecap:round;stroke-linejoin:round"></polyline><line x1="306.37" y1="326.42" x2="306.37" y2="337.25" style="fill:none;stroke:#263238;stroke-linecap:round;stroke-linejoin:round"></line><line x1="306.53" y1="329.47" x2="309.24" y2="325.4" style="fill:none;stroke:#263238;stroke-linecap:round;stroke-linejoin:round"></line><line x1="292.31" y1="323.71" x2="291.3" y2="358.08" style="fill:#fff;stroke:#263238;stroke-linecap:round;stroke-linejoin:round"></line><path d="M291.8,308.13a6.6,6.6,0,0,0-4.06,1.69c-1.86,1.7-2.54,8.3-2.54,8.3s5.93-1.69,6.94-2,10,1.69,10,1.69-.84-5.92-3.21-8.46S291.8,308.13,291.8,308.13Z" style="fill:#263238;stroke:#263238;stroke-linecap:round;stroke-linejoin:round"></path><path d="M289.43,302.71s1.36,2,1.36,8,.67,12.19,1.52,13,4.4-8,4.4-12a18.38,18.38,0,0,1,1.87-7.62s-4.24-2.88-6.44-3.22A2.4,2.4,0,0,0,289.43,302.71Z" style="fill:#fff;stroke:#263238;stroke-linecap:round;stroke-linejoin:round"></path><path d="M291.06,317.31c.27,3.29.73,5.88,1.25,6.4s2.15-2.78,3.27-6.32A14.35,14.35,0,0,1,291.06,317.31Z" style="fill:#263238;stroke:#263238;stroke-linecap:round;stroke-linejoin:round"></path><path d="M299.76,286.46s1,.34,2.88-1.36,1-4.91.17-4.23a6.55,6.55,0,0,0-1.36,1.52,5.48,5.48,0,0,0-4.57-3.72c-3.55-.34-7.79,4.57-7.79,4.57s-7.78,5.76-6.94,10.33,5.25,8.63,7.28,9.14,5.76-3.21,5.08-6.43-1.18-8,0-8.47A48.06,48.06,0,0,1,299.76,286.46Z" style="fill:#263238;stroke:#263238;stroke-linecap:round;stroke-linejoin:round"></path><path d="M289.09,300s-2.87-2-3.55-.5.85,4.23,2.71,5.07,3.55-1.86,3.55-1.86,5.93,4.74,10,4.91,4.24-3.05,3.56-9.14-2.71-10.84-4.23-12.53-7.45-.17-9.32,1.35-3,2.88-1.18,3.22,3.55,1,1.86,2.88-2.54,1.18-2,2.54,2.71,2.71.68,3.39Z" style="fill:#fff;stroke:#263238;stroke-linecap:round;stroke-linejoin:round"></path></g></g><g id="freepik--character-2--inject-32"><g style="clip-path:url(#freepik--clip-path-4--inject-32)"><path d="M214.68,309s-21.34,2.54-22,4.4-8.46,20-7.28,21.67,3.56,2,5.42,2a6.26,6.26,0,0,0,3.56-1.52l-5.42,23h39.28l1.19-16.09s4.57,2,7.62,1.7,2.37-2.71,1.69-7.28-1-16.26-2.2-18.46-15.58-8.3-15.58-8.3Z" style="fill:#263238;stroke:#263238;stroke-linecap:round;stroke-linejoin:round"></path><polyline points="229.75 336.58 229.75 326.08 230.59 324.05" style="fill:none;stroke:#fff;stroke-linecap:round;stroke-linejoin:round"></polyline><polyline points="195.54 327.77 197.24 320.66 196.9 319.14" style="fill:none;stroke:#fff;stroke-linecap:round;stroke-linejoin:round"></polyline><path d="M200,359.27s3.21-13.89,4.74-22.52S212.64,309,212.64,309l9.83,2.71s-6.61,19.3-8.3,27.6-3.11,20.06-3.11,20.06Z" style="fill:#21496C;stroke:#263238;stroke-miterlimit:10"></path><path d="M214,307s-2.88,0-3.9,2-2.37,9.82-2.37,9.82,6.1-2.71,6.61-2.71,2.88.17,4.06,1.52,3.73,4.57,3.73,4.57,3.89-6.26,2.88-10.32a6.57,6.57,0,0,0-5.93-4.91Z" style="fill:#21496C;stroke:#263238;stroke-miterlimit:10"></path><path d="M213,302.54s-.34,11.86,0,15.24.85,4.23.85,4.23,2.88-4.74,3.72-6.43,3.39-3.56,4.58-5.08,2-7.28,2-7.28-4.4,3.39-6.77,2.54A12.6,12.6,0,0,1,213,302.54Z" style="fill:#fff;stroke:#263238;stroke-linecap:round;stroke-linejoin:round"></path><path d="M220,281.11c-2.88.42-5.69,1.86-6.5,4.67-.68,2.37-1,10.16-1.18,14.05s1.86,8.81,3.55,9.32a8.46,8.46,0,0,0,4.4.34c.85-.34,4.75-5.59,5.76-6.61s4.06-10.5,4.06-13.88a7.67,7.67,0,0,0-5.24-7.62A11.67,11.67,0,0,0,220,281.11Z" style="fill:#fff;stroke:#263238;stroke-linecap:round;stroke-linejoin:round"></path><path d="M228.39,297s2.71-2.38,2,.67a6.39,6.39,0,0,1-3.38,4.24Z" style="fill:#fff;stroke:#263238;stroke-linecap:round;stroke-linejoin:round"></path><path d="M212.64,293.74s-2-1.86-2,.68a8,8,0,0,0,1.7,4.57Z" style="fill:#fff;stroke:#263238;stroke-linecap:round;stroke-linejoin:round"></path><path d="M228.39,297a34.49,34.49,0,0,0,1.69-8,7.67,7.67,0,0,0-5.24-7.62,11.67,11.67,0,0,0-4.85-.27c-2.88.42-5.69,1.86-6.5,4.67a55.44,55.44,0,0,0-.91,8.49c.86-.67,2.65-2.31,2.27-4.26-.51-2.54-1.53-3.72.33-4.91s4.07.51,7.12,1.53,6.09-.34,6.94.5-2.71,4.41-2.2,5.76,1.69,2.88,1.35,4.07Z" style="fill:#263238;stroke:#263238;stroke-linecap:round;stroke-linejoin:round"></path><path d="M204,329.47s-2.54-3.56-4.23-3.73-5.76,3.73-5.76,3.73Z" style="fill:#fff;stroke:#263238;stroke-linecap:round;stroke-linejoin:round"></path><polygon points="220.09 329.8 222.47 329.8 222.97 334.55 220.43 333.87 220.09 329.8" style="fill:#fff;stroke:#263238;stroke-linecap:round;stroke-linejoin:round"></polygon><polygon points="222.47 329.8 226.7 331.67 227.71 336.92 222.97 334.55 222.47 329.8" style="fill:#fff;stroke:#263238;stroke-linecap:round;stroke-linejoin:round"></polygon><path d="M236,339l-24.21-9.48a19.64,19.64,0,0,0-3.9,2.53,6.14,6.14,0,0,0-1.52,2.54s11.51,8.3,17.1,10.84,13.72,3.39,15.07,2,1-6.6.17-7.45a6.86,6.86,0,0,0-1.52-1.18" style="fill:#263238;stroke:#263238;stroke-linecap:round;stroke-linejoin:round"></path><path d="M220.09,329l.34,4.91s-17.78,4.06-24.38,5.25-10.16.33-11.17-2.71,2.37-6.78,3.89-7.62S220.09,329,220.09,329Z" style="fill:#263238;stroke:#263238;stroke-linecap:round;stroke-linejoin:round"></path></g></g><g id="freepik--character-1--inject-32"><g style="clip-path:url(#freepik--clip-path-5--inject-32)"><path d="M154.69,317.39s6.78,1.69,9.49,2.54,3.55,1.86,3.55,3.89-1.52,11-1.52,12.36v9.15c0,2.54,2.54,11.85,2.54,11.85h-33s-3.72-14.22-6.26-22-2.88-10.5-.34-11.69a167.55,167.55,0,0,1,18.45-5.58A50.79,50.79,0,0,1,154.69,317.39Z" style="fill:#21496C;stroke:#263238;stroke-miterlimit:10"></path><path d="M164.52,328.56s2,9.32,1.35,12.7-5.25,16.26-5.25,16.26" style="fill:none;stroke:#263238;stroke-linecap:round;stroke-linejoin:round"></path><path d="M129.13,323.48s-3,.51-2.2,4.41S123.88,357,123.88,357h7.45s5.08-13.38,5.92-16.59,1.53-5.76,0-8.47" style="fill:#21496C;stroke:#263238;stroke-miterlimit:10"></path><polygon points="160.68 300.9 161.79 335.39 151.78 335.39 151.78 303.87 160.68 300.9" style="fill:#263238;stroke:#263238;stroke-linecap:round;stroke-linejoin:round"></polygon><path d="M147.75,325.69s2.88,13,4.07,16.93,1.35,13,1,14.22,4.23,0,4.23,0,1.19-9,1.87-14.22-1.36-15.07-1.36-15.07l-2.2-8.64-8.3,1.53Z" style="fill:#fff;stroke:#263238;stroke-linecap:round;stroke-linejoin:round"></path><path d="M155,311.46a21.06,21.06,0,0,0,.17,8.13c1,3.73,3.73,10.5,1.36,12.36s-5.59.85-7.28-2.54-3.22-11.85-3.22-18.79.68-8.13,3.05-8.13S155,311.46,155,311.46Z" style="fill:#fff;stroke:#263238;stroke-linecap:round;stroke-linejoin:round"></path><path d="M150.12,308.25a14,14,0,0,1-5.25,2.87c-2.54.51-3.89-6.26-4.23-13s1.36-10.5,4.91-12.19,12.19-.85,15.58.5,7.45,3.56,7.45,7.11S164,300,162.65,300.8s-4.57,2-6.6,4.06A18.87,18.87,0,0,1,150.12,308.25Z" style="fill:#263238;stroke:#263238;stroke-linecap:round;stroke-linejoin:round"></path><path d="M150.12,308.25s2,5.08,5.76,5.24,8-8.46,8.13-12.19-3.73-10.16-3.73-10.16S153.68,306.21,150.12,308.25Z" style="fill:#fff;stroke:#263238;stroke-linecap:round;stroke-linejoin:round"></path><polyline points="149.11 300.63 149.44 337.2 138.1 337.2 140.64 294.7" style="fill:#263238;stroke:#263238;stroke-linecap:round;stroke-linejoin:round"></polyline></g></g></svg>